# xmcd
#
# Track frame offsets:
#	200
#	23122
#	46030
#	68972
#	91892
#	114812
#	137670
#
# Disc length: 2130 seconds
#
# Revision: 0
# Processed by: cddbd v1.4PL0 Copyright (c) Steve Scherf et al.
# Submitted via: EasyCDDAExtractor 4.5.0.2
#
DISCID=4e085007
DTITLE=Ray Boltz - Feel the Nails Soundtrack
DYEAR=1900
DGENRE=Gospel
TTITLE0=Demonstration Vocal
TTITLE1=High - Background Vocals
TTITLE2=Medium - Background Vocals
TTITLE3=Low - Background Vocals
TTITLE4=High - No Background Vocals
TTITLE5=Medium - No Background Vocals
TTITLE6=Low - No Background Vocals
EXTD=
EXTT0=
EXTT1=
EXTT2=
EXTT3=
EXTT4=
EXTT5=
EXTT6=
PLAYORDER=
